<svg xmlns="http://www.w3.org/2000/svg" xmlns:xlink="http://www.w3.org/1999/xlink" width="432.00000000000006" height="104.25600000000001"><path fill="#000000" stroke="#000000" stroke-width="1" d="M-200.02 6.19C-198.22 6.19-196.85 4.97-196.85 3.02L-196.85-45.00C-194.69-48.96-192.89-52.92-191.59-56.30C-190.94-57.96-191.74-59.69-193.46-60.34C-195.12-60.98-197.06-60.19-197.64-58.46C-200.30-50.90-207.94-37.01-214.06-29.74C-215.21-28.44-214.92-26.35-213.48-25.34C-211.97-24.19-209.95-24.62-208.80-26.06C-206.93-28.37-205.06-31.10-203.11-34.06L-203.11 3.02C-203.11 4.97-201.74 6.19-200.02 6.19ZM-192.96-34.34C-194.04-32.98-193.39-31.18-191.95-30.31C-190.15-29.38-188.14-29.95-187.06-31.39C-185.11-34.20-182.95-37.73-181.01-41.40L-180.29-42.91L-171.50-42.91L-171.50-4.97C-171.50-1.73-173.02-0.86-177.19-0.72C-179.42-0.58-181.08 0.94-181.01 2.66C-180.94 4.61-179.42 5.98-177.19 5.98C-168.34 5.98-165.31 2.88-165.31-4.32L-165.31-42.91L-155.95-42.91C-154.37-42.91-153.50-42.19-153.94-41.33C-154.37-40.46-156.17-36.79-156.46-36.29C-157.25-34.85-156.74-33.05-155.52-32.40C-154.30-31.75-152.21-32.47-151.34-33.55C-149.90-35.42-148.18-39.17-147.31-43.06C-146.88-45.00-148.18-48.67-153.72-48.67L-177.62-48.67C-176.40-51.34-175.46-53.93-174.74-56.38C-174.10-58.25-174.96-59.83-176.90-60.34C-178.85-60.84-180.58-60.12-181.15-58.25C-183.24-51.12-188.14-40.61-192.96-34.34ZM-189.50-10.58C-190.37-9.07-189.86-7.13-188.14-6.34C-186.26-5.47-184.39-6.19-183.53-7.92C-180.36-13.61-177.26-21.67-175.68-27.79C-175.25-29.59-176.18-31.03-177.91-31.46C-179.64-31.97-181.44-31.03-181.87-29.30C-183.46-23.76-186.62-15.77-189.50-10.58ZM-161.21-26.64C-158.40-20.81-154.66-11.81-152.78-5.83C-152.21-3.89-150.34-3.10-148.39-3.82C-146.59-4.54-145.94-6.12-146.52-7.99C-148.75-14.47-151.99-22.54-155.45-28.94C-156.24-30.53-158.04-31.10-159.70-30.46C-161.14-29.88-162.07-28.22-161.21-26.64ZM-102.60 5.04C-92.02 4.82-87.12 0.72-87.12-16.34C-87.12-19.08-87.34-21.60-87.70-24.05L-77.33-24.05C-75.60-24.05-74.23-25.42-74.23-27.14C-74.23-28.80-75.60-30.17-77.33-30.17L-89.06-30.17C-89.64-32.33-90.36-34.27-91.22-36.14C-88.92-37.80-85.25-40.54-82.87-42.34C-76.54-47.16-77.62-55.30-86.76-55.30L-108.79-55.30C-110.38-55.30-111.67-54.00-111.67-52.42C-111.67-50.76-110.38-49.46-108.79-49.46L-88.34-49.46C-85.54-49.46-85.39-48.02-87.41-46.30C-88.49-45.29-91.80-42.84-94.03-41.18C-94.18-41.47-94.39-41.76-94.61-42.05C-95.62-43.49-97.49-43.99-98.93-43.20C-100.44-42.41-101.16-40.54-100.30-39.17C-98.50-36.50-96.98-33.55-95.83-30.17L-109.37-30.17C-111.02-30.17-112.39-28.80-112.39-27.14C-112.39-25.42-111.02-24.05-109.37-24.05L-94.25-24.05C-93.82-21.67-93.60-19.15-93.60-16.42C-93.60-3.60-96.26-1.87-102.82-1.44C-105.05-1.30-106.27 0.22-106.20 1.94C-106.06 3.89-104.62 5.04-102.60 5.04ZM-141.41-41.04C-141.41-39.46-140.11-38.09-138.53-38.09L-132.98-38.09C-133.70-34.56-134.50-31.10-135.29-28.01C-137.16-20.74-136.15-18.14-129.17-13.97C-128.30-13.46-127.44-12.89-126.50-12.31C-129.53-7.92-133.56-4.10-139.10-0.79C-140.62 0.14-140.90 2.30-139.82 3.74C-138.46 5.33-136.44 5.18-134.86 4.10C-129.17 0.29-124.85-3.82-121.46-8.71C-119.09-6.84-116.71-4.82-114.34-2.66C-112.97-1.37-110.88-1.37-109.51-2.59C-108.14-3.89-108.22-6.19-109.66-7.42C-112.25-9.72-115.27-12.10-118.37-14.18C-115.78-19.58-114.19-25.92-113.40-33.41C-112.68-40.68-115.27-43.92-123.70-43.92L-125.35-43.92C-124.49-48.24-123.70-52.42-123.12-55.73C-122.83-57.67-124.13-59.26-125.93-59.47C-127.80-59.76-129.31-58.68-129.60-56.74C-130.10-53.06-130.90-48.60-131.76-43.92L-138.53-43.92C-140.11-43.92-141.41-42.55-141.41-41.04ZM-129.24-26.71C-128.38-29.88-127.44-33.91-126.58-38.09L-124.13-38.09C-120.46-38.09-119.30-37.22-119.66-33.77C-120.17-27.72-121.39-22.32-123.55-17.57L-126.07-19.08C-129.82-21.17-130.25-22.75-129.24-26.71ZM-62.42 8.28C-56.09 5.69-53.06 1.44-53.06-4.46C-53.06-10.37-56.81-14.33-61.63-14.18C-64.58-14.04-67.03-12.24-67.03-9.36C-67.03-6.41-64.87-4.46-62.21-4.46C-60.41-4.46-58.75-5.62-58.03-7.20C-57.60-6.55-57.46-5.76-57.46-4.61C-57.46-0.94-59.98 2.16-64.58 4.10C-65.81 4.61-66.24 6.12-65.66 7.27C-65.09 8.42-63.65 8.78-62.42 8.28ZM33.34 2.52L63.07 2.52C64.80 2.52 66.17 1.15 66.17-0.58C66.17-2.30 64.80-3.74 63.07-3.74L33.34-3.74C23.98-3.74 21.67-5.40 21.67-13.32L21.67-33.84L32.62-33.84L32.62-23.04C32.62-14.26 35.28-12.17 44.57-12.17C53.78-12.17 56.59-14.26 56.59-23.04L56.59-33.84L66.53-33.84C68.26-33.84 69.62-35.21 69.62-36.94C69.62-38.66 68.26-40.03 66.53-40.03L56.59-40.03L56.59-53.57C56.59-55.51 55.15-56.81 53.35-56.81C51.55-56.81 50.04-55.51 50.04-53.57L50.04-40.03L39.02-40.03L39.02-55.22C39.02-57.17 37.58-58.46 35.78-58.46C34.06-58.46 32.62-57.17 32.62-55.22L32.62-40.03L21.67-40.03L21.67-53.50C21.67-55.51 20.23-56.81 18.36-56.81C16.49-56.81 15.05-55.51 15.05-53.50L15.05-40.03L5.54-40.03C3.82-40.03 2.45-38.66 2.45-36.94C2.45-35.21 3.82-33.84 5.54-33.84L15.05-33.84L15.05-13.32C15.05-0.86 18.86 2.52 33.34 2.52ZM39.02-23.18L39.02-33.84L50.04-33.84L50.04-23.18C50.04-19.22 48.96-18.43 44.57-18.43C40.18-18.43 39.02-19.22 39.02-23.18ZM117.79 5.62C119.59 5.62 121.03 4.32 121.03 2.38L121.03-19.66C121.03-20.02 121.03-20.30 120.96-20.59C125.93-17.21 131.54-14.33 137.23-12.24C139.25-11.52 141.34-12.17 142.06-13.90C142.78-15.77 141.77-17.71 140.26-18.14C131.62-20.74 123.70-24.84 117.94-30.38C130.10-30.53 132.84-33.12 132.84-44.35C132.84-55.87 129.96-58.32 116.93-58.32L99.07-58.32C86.04-58.32 83.16-55.87 83.16-44.35C83.16-33.19 85.82-30.53 97.85-30.38C92.23-24.48 84.96-20.30 75.89-17.28C73.94-16.63 73.15-14.76 73.80-13.18C74.52-11.52 76.39-10.94 78.34-11.66C88.70-15.41 99.58-22.46 105.26-30.38L110.23-30.38C112.25-27.72 114.84-25.20 117.79-22.90C115.99-22.90 114.48-21.60 114.48-19.66L114.48 2.38C114.48 4.32 115.99 5.62 117.79 5.62ZM80.06 3.96C80.93 5.76 82.87 6.12 84.74 5.40C95.62 0.79 101.74-6.91 102.74-19.30C102.89-21.02 101.66-22.68 99.86-22.75C98.14-22.90 96.62-21.67 96.55-19.94C95.83-9.36 91.44-3.82 81.65-0.14C80.14 0.50 79.20 2.23 80.06 3.96ZM89.86-41.83L104.69-41.83L104.69-35.78L99.07-35.78C91.87-35.78 90.22-36.43 89.86-41.83ZM89.86-46.94C90.22-52.27 91.87-52.92 99.07-52.92L104.69-52.92L104.69-46.94ZM111.31-35.78L111.31-41.83L126.07-41.83C125.78-36.43 124.13-35.78 116.93-35.78ZM111.31-46.94L111.31-52.92L116.93-52.92C124.06-52.92 125.78-52.27 126.07-46.94ZM180.00-12.82C181.58-12.82 182.88-14.04 182.95-15.62C183.46-23.69 184.03-42.98 184.03-45.72L184.03-54.65C184.03-56.81 182.30-58.54 180.00-58.54C177.70-58.54 176.04-56.81 176.04-54.65L176.04-45.72C176.04-42.98 176.62-23.69 177.05-15.62C177.12-14.04 178.42-12.82 180.00-12.82ZM174.74-1.51C174.74 1.37 177.12 3.74 180.00 3.74C182.88 3.74 185.26 1.37 185.26-1.51C185.26-4.39 182.88-6.70 180.00-6.70C177.12-6.70 174.74-4.39 174.74-1.51Z"/></svg>